# banana.obj (tools/gen_kart_items.py)
mtllib banana.mtl
v -0.5659 0.1354 0.0000
v -0.5659 0.1354 0.0000
v -0.5659 0.1354 0.0000
v -0.5659 0.1354 0.0000
v -0.5659 0.1354 0.0000
v -0.5659 0.1354 0.0000
v -0.5659 0.1354 0.0000
v -0.5659 0.1354 0.0000
v -0.5474 0.1354 0.1861
v -0.5233 0.1995 0.1668
v -0.4693 0.2153 0.1234
v -0.4260 0.1710 0.0887
v -0.4260 0.0999 0.0887
v -0.4693 0.0556 0.1234
v -0.5233 0.0714 0.1668
v -0.5474 0.1354 0.1861
v -0.4366 0.1354 0.3346
v -0.4114 0.2232 0.3006
v -0.3548 0.2449 0.2244
v -0.3094 0.1841 0.1633
v -0.3094 0.0867 0.1633
v -0.3548 0.0260 0.2244
v -0.4114 0.0477 0.3006
v -0.4366 0.1354 0.3346
v -0.2806 0.1354 0.4426
v -0.2623 0.2373 0.3971
v -0.2210 0.2625 0.2949
v -0.1880 0.1920 0.2129
v -0.1880 0.0789 0.2129
v -0.2210 0.0084 0.2949
v -0.2623 0.0336 0.3971
v -0.2806 0.1354 0.4426
v -0.0967 0.1354 0.4995
v -0.0900 0.2441 0.4476
v -0.0751 0.2709 0.3310
v -0.0631 0.1957 0.2375
v -0.0631 0.0752 0.2375
v -0.0751 0.0000 0.3310
v -0.0900 0.0268 0.4476
v -0.0967 0.1354 0.4995
v 0.0967 0.1354 0.4995
v 0.0900 0.2441 0.4476
v 0.0751 0.2709 0.3310
v 0.0631 0.1957 0.2375
v 0.0631 0.0752 0.2375
v 0.0751 0.0000 0.3310
v 0.0900 0.0268 0.4476
v 0.0967 0.1354 0.4995
v 0.2806 0.1354 0.4426
v 0.2623 0.2373 0.3971
v 0.2210 0.2625 0.2949
v 0.1880 0.1920 0.2129
v 0.1880 0.0789 0.2129
v 0.2210 0.0084 0.2949
v 0.2623 0.0336 0.3971
v 0.2806 0.1354 0.4426
v 0.4366 0.1354 0.3346
v 0.4114 0.2232 0.3006
v 0.3548 0.2449 0.2244
v 0.3094 0.1841 0.1633
v 0.3094 0.0867 0.1633
v 0.3548 0.0260 0.2244
v 0.4114 0.0477 0.3006
v 0.4366 0.1354 0.3346
v 0.5474 0.1354 0.1861
v 0.5233 0.1995 0.1668
v 0.4693 0.2153 0.1234
v 0.4260 0.1710 0.0887
v 0.4260 0.0999 0.0887
v 0.4693 0.0556 0.1234
v 0.5233 0.0714 0.1668
v 0.5474 0.1354 0.1861
v 0.5659 0.1354 0.0000
v 0.5659 0.1354 0.0000
v 0.5659 0.1354 -0.0000
v 0.5659 0.1354 -0.0000
v 0.5659 0.1354 -0.0000
v 0.5659 0.1354 -0.0000
v 0.5659 0.1354 0.0000
v 0.5659 0.1354 0.0000
usemtl banana
f 1 2 10 9
f 2 3 11 10
f 3 4 12 11
f 4 5 13 12
f 5 6 14 13
f 6 7 15 14
f 7 8 16 15
f 9 10 18 17
f 10 11 19 18
f 11 12 20 19
f 12 13 21 20
f 13 14 22 21
f 14 15 23 22
f 15 16 24 23
f 17 18 26 25
f 18 19 27 26
f 19 20 28 27
f 20 21 29 28
f 21 22 30 29
f 22 23 31 30
f 23 24 32 31
f 25 26 34 33
f 26 27 35 34
f 27 28 36 35
f 28 29 37 36
f 29 30 38 37
f 30 31 39 38
f 31 32 40 39
f 33 34 42 41
f 34 35 43 42
f 35 36 44 43
f 36 37 45 44
f 37 38 46 45
f 38 39 47 46
f 39 40 48 47
f 41 42 50 49
f 42 43 51 50
f 43 44 52 51
f 44 45 53 52
f 45 46 54 53
f 46 47 55 54
f 47 48 56 55
f 49 50 58 57
f 50 51 59 58
f 51 52 60 59
f 52 53 61 60
f 53 54 62 61
f 54 55 63 62
f 55 56 64 63
f 57 58 66 65
f 58 59 67 66
f 59 60 68 67
f 60 61 69 68
f 61 62 70 69
f 62 63 71 70
f 63 64 72 71
f 65 66 74 73
f 66 67 75 74
f 67 68 76 75
f 68 69 77 76
f 69 70 78 77
f 70 71 79 78
f 71 72 80 79
