# Turbo Kart model (generated by tools/gen_kart_obj.py; edit or replace freely)
mtllib kart.mtl
v -0.6400 0.2400 -1.1800
v 0.6400 0.2400 -1.1800
v 0.6400 0.5000 -1.1800
v -0.6400 0.5000 -1.1800
v -0.6400 0.2400 1.1800
v 0.6400 0.2400 1.1800
v 0.6400 0.5000 1.1800
v -0.6400 0.5000 1.1800
v -0.5600 0.4800 -0.7200
v 0.5600 0.4800 -0.7200
v 0.5600 0.7400 -0.7200
v -0.5600 0.7400 -0.7200
v -0.5600 0.4800 0.6000
v 0.5600 0.4800 0.6000
v 0.5600 0.7400 0.6000
v -0.5600 0.7400 0.6000
v -0.4600 0.4800 0.5500
v 0.4600 0.4800 0.5500
v 0.4600 0.7200 0.5500
v -0.4600 0.7200 0.5500
v -0.4600 0.4800 1.0800
v 0.4600 0.4800 1.0800
v 0.4600 0.7200 1.0800
v -0.4600 0.7200 1.0800
v -0.1200 0.7200 0.5000
v 0.1200 0.7200 0.5000
v 0.1200 0.7500 0.5000
v -0.1200 0.7500 0.5000
v -0.1200 0.7200 1.1500
v 0.1200 0.7200 1.1500
v 0.1200 0.7500 1.1500
v -0.1200 0.7500 1.1500
v -0.5200 0.3000 1.0600
v 0.5200 0.3000 1.0600
v 0.5200 0.4800 1.0600
v -0.5200 0.4800 1.0600
v -0.5200 0.3000 1.2200
v 0.5200 0.3000 1.2200
v 0.5200 0.4800 1.2200
v -0.5200 0.4800 1.2200
v 0.5000 0.3200 -0.3500
v 0.6600 0.3200 -0.3500
v 0.6600 0.5800 -0.3500
v 0.5000 0.5800 -0.3500
v 0.5000 0.3200 0.5500
v 0.6600 0.3200 0.5500
v 0.6600 0.5800 0.5500
v 0.5000 0.5800 0.5500
v -0.6600 0.3200 -0.3500
v -0.5000 0.3200 -0.3500
v -0.5000 0.5800 -0.3500
v -0.6600 0.5800 -0.3500
v -0.6600 0.3200 0.5500
v -0.5000 0.3200 0.5500
v -0.5000 0.5800 0.5500
v -0.6600 0.5800 0.5500
v -0.2800 0.7400 -0.0200
v 0.2800 0.7400 -0.0200
v 0.2800 1.0000 -0.0200
v -0.2800 1.0000 -0.0200
v -0.2800 0.7400 0.1600
v 0.2800 0.7400 0.1600
v 0.2800 1.0000 0.1600
v -0.2800 1.0000 0.1600
v -0.3000 0.5600 -0.5800
v 0.3000 0.5600 -0.5800
v 0.3000 1.0200 -0.5800
v -0.3000 1.0200 -0.5800
v -0.3000 0.5600 0.0400
v 0.3000 0.5600 0.0400
v 0.3000 1.0200 0.0400
v -0.3000 1.0200 0.0400
v 0.0000 1.4800 -0.2800
v 0.0000 1.4800 -0.2800
v 0.0000 1.4800 -0.2800
v 0.0000 1.4800 -0.2800
v 0.0000 1.4800 -0.2800
v 0.0000 1.4800 -0.2800
v 0.0000 1.4800 -0.2800
v 0.0000 1.4800 -0.2800
v 0.0000 1.4800 -0.2800
v 0.1980 1.3980 -0.2800
v 0.1400 1.3980 -0.1400
v 0.0000 1.3980 -0.0820
v -0.1400 1.3980 -0.1400
v -0.1980 1.3980 -0.2800
v -0.1400 1.3980 -0.4200
v -0.0000 1.3980 -0.4780
v 0.1400 1.3980 -0.4200
v 0.1980 1.3980 -0.2800
v 0.2800 1.2000 -0.2800
v 0.1980 1.2000 -0.0820
v 0.0000 1.2000 0.0000
v -0.1980 1.2000 -0.0820
v -0.2800 1.2000 -0.2800
v -0.1980 1.2000 -0.4780
v -0.0000 1.2000 -0.5600
v 0.1980 1.2000 -0.4780
v 0.2800 1.2000 -0.2800
v 0.1980 1.0020 -0.2800
v 0.1400 1.0020 -0.1400
v 0.0000 1.0020 -0.0820
v -0.1400 1.0020 -0.1400
v -0.1980 1.0020 -0.2800
v -0.1400 1.0020 -0.4200
v -0.0000 1.0020 -0.4780
v 0.1400 1.0020 -0.4200
v 0.1980 1.0020 -0.2800
v 0.0000 0.9200 -0.2800
v 0.0000 0.9200 -0.2800
v 0.0000 0.9200 -0.2800
v -0.0000 0.9200 -0.2800
v -0.0000 0.9200 -0.2800
v -0.0000 0.9200 -0.2800
v -0.0000 0.9200 -0.2800
v 0.0000 0.9200 -0.2800
v 0.0000 0.9200 -0.2800
v -0.5800 0.7800 -1.1800
v 0.5800 0.7800 -1.1800
v 0.5800 0.9800 -1.1800
v -0.5800 0.9800 -1.1800
v -0.5800 0.7800 -1.0200
v 0.5800 0.7800 -1.0200
v 0.5800 0.9800 -1.0200
v -0.5800 0.9800 -1.0200
v -0.5000 0.5000 -1.1400
v -0.4000 0.5000 -1.1400
v -0.4000 0.8000 -1.1400
v -0.5000 0.8000 -1.1400
v -0.5000 0.5000 -1.0600
v -0.4000 0.5000 -1.0600
v -0.4000 0.8000 -1.0600
v -0.5000 0.8000 -1.0600
v 0.4000 0.5000 -1.1400
v 0.5000 0.5000 -1.1400
v 0.5000 0.8000 -1.1400
v 0.4000 0.8000 -1.1400
v 0.4000 0.5000 -1.0600
v 0.5000 0.5000 -1.0600
v 0.5000 0.8000 -1.0600
v 0.4000 0.8000 -1.0600
v 0.9400 0.7800 -0.8400
v 0.5800 0.7800 -0.8400
v 0.9400 0.6628 -0.5572
v 0.5800 0.6628 -0.5572
v 0.9400 0.3800 -0.4400
v 0.5800 0.3800 -0.4400
v 0.9400 0.0972 -0.5572
v 0.5800 0.0972 -0.5572
v 0.9400 -0.0200 -0.8400
v 0.5800 -0.0200 -0.8400
v 0.9400 0.0972 -1.1228
v 0.5800 0.0972 -1.1228
v 0.9400 0.3800 -1.2400
v 0.5800 0.3800 -1.2400
v 0.9400 0.6628 -1.1228
v 0.5800 0.6628 -1.1228
v 0.9400 0.7800 -0.8400
v 0.5800 0.7800 -0.8400
v 0.9400 0.3800 -0.8400
v 0.5800 0.3800 -0.8400
v -0.5800 0.7800 -0.8400
v -0.9400 0.7800 -0.8400
v -0.5800 0.6628 -0.5572
v -0.9400 0.6628 -0.5572
v -0.5800 0.3800 -0.4400
v -0.9400 0.3800 -0.4400
v -0.5800 0.0972 -0.5572
v -0.9400 0.0972 -0.5572
v -0.5800 -0.0200 -0.8400
v -0.9400 -0.0200 -0.8400
v -0.5800 0.0972 -1.1228
v -0.9400 0.0972 -1.1228
v -0.5800 0.3800 -1.2400
v -0.9400 0.3800 -1.2400
v -0.5800 0.6628 -1.1228
v -0.9400 0.6628 -1.1228
v -0.5800 0.7800 -0.8400
v -0.9400 0.7800 -0.8400
v -0.5800 0.3800 -0.8400
v -0.9400 0.3800 -0.8400
vt 0.000 0.000
vt 1.000 0.000
vt 1.000 1.000
vt 0.000 1.000
vt 0.000 0.000
vt 1.000 0.000
vt 1.000 1.000
vt 0.000 1.000
vt 0.000 0.000
vt 1.000 0.000
vt 1.000 1.000
vt 0.000 1.000
vt 0.000 0.000
vt 1.000 0.000
vt 1.000 1.000
vt 0.000 1.000
vt 0.000 0.000
vt 1.000 0.000
vt 1.000 1.000
vt 0.000 1.000
vt 0.000 0.000
vt 1.000 0.000
vt 1.000 1.000
vt 0.000 1.000
vt 0.000 0.000
vt 1.000 0.000
vt 1.000 1.000
vt 0.000 1.000
vt 0.000 0.000
vt 1.000 0.000
vt 1.000 1.000
vt 0.000 1.000
vt 0.000 0.000
vt 1.000 0.000
vt 1.000 1.000
vt 0.000 1.000
vt 0.000 0.000
vt 1.000 0.000
vt 1.000 1.000
vt 0.000 1.000
vt 0.000 0.000
vt 1.000 0.000
vt 1.000 1.000
vt 0.000 1.000
vt 0.000 0.000
vt 1.000 0.000
vt 1.000 1.000
vt 0.000 1.000
vt 0.000 0.000
vt 1.000 0.000
vt 1.000 1.000
vt 0.000 1.000
vt 0.000 0.000
vt 1.000 0.000
vt 1.000 1.000
vt 0.000 1.000
vt 0.000 0.000
vt 1.000 0.000
vt 1.000 1.000
vt 0.000 1.000
vt 0.000 0.000
vt 1.000 0.000
vt 1.000 1.000
vt 0.000 1.000
vt 0.000 0.000
vt 1.000 0.000
vt 1.000 1.000
vt 0.000 1.000
vt 0.000 0.000
vt 1.000 0.000
vt 1.000 1.000
vt 0.000 1.000
vt 0.000 0.000
vt 1.000 0.000
vt 1.000 1.000
vt 0.000 1.000
vt 0.000 0.000
vt 1.000 0.000
vt 1.000 1.000
vt 0.000 1.000
vt 0.000 0.000
vt 1.000 0.000
vt 1.000 1.000
vt 0.000 1.000
vt 0.000 0.000
vt 1.000 0.000
vt 1.000 1.000
vt 0.000 1.000
vt 0.000 0.000
vt 1.000 0.000
vt 1.000 1.000
vt 0.000 1.000
vt 0.000 0.000
vt 1.000 0.000
vt 1.000 1.000
vt 0.000 1.000
vt 0.000 0.000
vt 1.000 0.000
vt 1.000 1.000
vt 0.000 1.000
vt 0.000 0.000
vt 1.000 0.000
vt 1.000 1.000
vt 0.000 1.000
vt 0.000 0.000
vt 1.000 0.000
vt 1.000 1.000
vt 0.000 1.000
vt 0.000 0.000
vt 1.000 0.000
vt 1.000 1.000
vt 0.000 1.000
vt 0.000 0.000
vt 1.000 0.000
vt 1.000 1.000
vt 0.000 1.000
vt 0.000 0.000
vt 1.000 0.000
vt 1.000 1.000
vt 0.000 1.000
vt 0.000 0.000
vt 1.000 0.000
vt 1.000 1.000
vt 0.000 1.000
vt 0.000 0.000
vt 1.000 0.000
vt 1.000 1.000
vt 0.000 1.000
vt 0.000 0.000
vt 1.000 0.000
vt 1.000 1.000
vt 0.000 1.000
vt 0.000 0.000
vt 1.000 0.000
vt 1.000 1.000
vt 0.000 1.000
vt 0.000 0.000
vt 1.000 0.000
vt 1.000 1.000
vt 0.000 1.000
vt 0.000 0.000
vt 1.000 0.000
vt 1.000 1.000
vt 0.000 1.000
vt 0.000 0.000
vt 1.000 0.000
vt 1.000 1.000
vt 0.000 1.000
vt 0.000 0.000
vt 1.000 0.000
vt 1.000 1.000
vt 0.000 1.000
vt 0.000 0.000
vt 1.000 0.000
vt 1.000 1.000
vt 0.000 1.000
vt 0.000 0.000
vt 1.000 0.000
vt 1.000 1.000
vt 0.000 1.000
vt 0.000 0.000
vt 1.000 0.000
vt 1.000 1.000
vt 0.000 1.000
vt 0.000 0.000
vt 1.000 0.000
vt 1.000 1.000
vt 0.000 1.000
vt 0.000 0.000
vt 1.000 0.000
vt 1.000 1.000
vt 0.000 1.000
vt 0.000 0.000
vt 1.000 0.000
vt 1.000 1.000
vt 0.000 1.000
vt 0.000 0.000
vt 1.000 0.000
vt 1.000 1.000
vt 0.000 1.000
vt 0.000 0.000
vt 1.000 0.000
vt 1.000 1.000
vt 0.000 1.000
vt 0.000 0.000
vt 1.000 0.000
vt 1.000 1.000
vt 0.000 1.000
vt 0.000 0.000
vt 1.000 0.000
vt 1.000 1.000
vt 0.000 1.000
vt 0.000 0.000
vt 1.000 0.000
vt 1.000 1.000
vt 0.000 1.000
vt 0.000 0.000
vt 1.000 0.000
vt 1.000 1.000
vt 0.000 1.000
vt 0.000 0.000
vt 1.000 0.000
vt 1.000 1.000
vt 0.000 1.000
vt 0.000 0.000
vt 1.000 0.000
vt 1.000 1.000
vt 0.000 1.000
vt 0.000 0.000
vt 1.000 0.000
vt 1.000 1.000
vt 0.000 1.000
vt 0.000 0.000
vt 1.000 0.000
vt 1.000 1.000
vt 0.000 1.000
vt 0.000 0.000
vt 1.000 0.000
vt 1.000 1.000
vt 0.000 1.000
vt 0.000 0.000
vt 1.000 0.000
vt 1.000 1.000
vt 0.000 1.000
vt 0.000 0.000
vt 1.000 0.000
vt 1.000 1.000
vt 0.000 1.000
vt 0.000 0.000
vt 1.000 0.000
vt 1.000 1.000
vt 0.000 1.000
vt 0.000 0.000
vt 1.000 0.000
vt 1.000 1.000
vt 0.000 1.000
vt 0.000 0.000
vt 1.000 0.000
vt 1.000 1.000
vt 0.000 1.000
vt 0.000 0.000
vt 1.000 0.000
vt 1.000 1.000
vt 0.000 1.000
vt 0.000 0.000
vt 1.000 0.000
vt 1.000 1.000
vt 0.000 1.000
vt 0.000 0.000
vt 1.000 0.000
vt 1.000 1.000
vt 0.000 1.000
vt 0.000 0.000
vt 1.000 0.000
vt 1.000 1.000
vt 0.000 1.000
vt 0.000 0.000
vt 1.000 0.000
vt 1.000 1.000
vt 0.000 1.000
vt 0.000 0.000
vt 1.000 0.000
vt 1.000 1.000
vt 0.000 1.000
vt 0.000 0.000
vt 1.000 0.000
vt 1.000 1.000
vt 0.000 1.000
vt 0.000 0.000
vt 1.000 0.000
vt 1.000 1.000
vt 0.000 1.000
vt 0.000 0.000
vt 1.000 0.000
vt 1.000 1.000
vt 0.000 1.000
vt 0.000 0.000
vt 1.000 0.000
vt 1.000 1.000
vt 0.000 1.000
vt 0.000 0.000
vt 1.000 0.000
vt 1.000 1.000
vt 0.000 1.000
vt 0.000 0.000
vt 1.000 0.000
vt 1.000 1.000
vt 0.000 1.000
vt 0.000 0.000
vt 1.000 0.000
vt 1.000 1.000
vt 0.000 1.000
vt 0.000 0.000
vt 1.000 0.000
vt 1.000 1.000
vt 0.000 1.000
vt 0.000 0.000
vt 1.000 0.000
vt 1.000 1.000
vt 0.000 1.000
vt 0.000 0.000
vt 1.000 0.000
vt 1.000 1.000
vt 0.000 1.000
vt 0.000 0.000
vt 1.000 0.000
vt 1.000 1.000
vt 0.000 1.000
vt 0.000 0.000
vt 1.000 0.000
vt 1.000 1.000
vt 0.000 1.000
vt 0.000 0.000
vt 1.000 0.000
vt 1.000 1.000
vt 0.000 1.000
vt 0.000 0.000
vt 1.000 0.000
vt 1.000 1.000
vt 0.000 1.000
vt 0.000 0.000
vt 1.000 0.000
vt 1.000 1.000
vt 0.000 1.000
vt 0.000 0.000
vt 1.000 0.000
vt 1.000 1.000
vt 0.000 1.000
vt 0.000 0.000
vt 1.000 0.000
vt 1.000 1.000
vt 0.000 1.000
vt 0.000 0.000
vt 1.000 0.000
vt 1.000 1.000
vt 0.000 1.000
vt 0.000 0.000
vt 1.000 0.000
vt 1.000 1.000
vt 0.000 1.000
vt 0.000 0.000
vt 1.000 0.000
vt 1.000 1.000
vt 0.000 1.000
vt 0.000 0.000
vt 1.000 0.000
vt 1.000 1.000
vt 0.000 1.000
vt 0.000 0.000
vt 1.000 0.000
vt 1.000 1.000
vt 0.000 1.000
vt 0.000 0.000
vt 1.000 0.000
vt 1.000 1.000
vt 0.000 1.000
vt 0.000 0.000
vt 1.000 0.000
vt 1.000 1.000
vt 0.000 1.000
vt 0.000 0.000
vt 1.000 0.000
vt 1.000 1.000
vt 0.000 1.000
vt 0.000 0.000
vt 1.000 0.000
vt 1.000 1.000
vt 0.000 1.000
vt 0.000 0.000
vt 1.000 0.000
vt 1.000 1.000
vt 0.000 1.000
vt 0.000 0.000
vt 1.000 0.000
vt 1.000 1.000
vt 0.000 1.000
vt 0.000 0.000
vt 1.000 0.000
vt 1.000 1.000
vt 0.000 1.000
vt 0.000 0.000
vt 1.000 0.000
vt 1.000 1.000
vt 0.000 1.000
vt 0.000 0.000
vt 1.000 0.000
vt 1.000 1.000
vt 0.000 1.000
vt 0.000 0.000
vt 1.000 0.000
vt 1.000 1.000
vt 0.000 1.000
vt 0.000 0.000
vt 1.000 0.000
vt 1.000 1.000
vt 0.000 1.000
vt 0.000 0.000
vt 1.000 0.000
vt 1.000 1.000
vt 0.000 1.000
vt 0.000 0.000
vt 1.000 0.000
vt 1.000 1.000
vt 0.000 1.000
vt 0.000 0.000
vt 1.000 0.000
vt 1.000 1.000
vt 0.000 1.000
vt 0.000 0.000
vt 1.000 0.000
vt 1.000 1.000
vt 0.000 1.000
vt 0.000 0.000
vt 1.000 0.000
vt 1.000 1.000
vt 0.000 1.000
vt 0.000 0.000
vt 1.000 0.000
vt 1.000 1.000
vt 0.000 1.000
vt 0.000 0.000
vt 1.000 0.000
vt 0.500 1.000
vt 0.000 0.000
vt 1.000 0.000
vt 0.500 1.000
vt 0.000 0.000
vt 1.000 0.000
vt 1.000 1.000
vt 0.000 1.000
vt 0.000 0.000
vt 1.000 0.000
vt 0.500 1.000
vt 0.000 0.000
vt 1.000 0.000
vt 0.500 1.000
vt 0.000 0.000
vt 1.000 0.000
vt 1.000 1.000
vt 0.000 1.000
vt 0.000 0.000
vt 1.000 0.000
vt 0.500 1.000
vt 0.000 0.000
vt 1.000 0.000
vt 0.500 1.000
vt 0.000 0.000
vt 1.000 0.000
vt 1.000 1.000
vt 0.000 1.000
vt 0.000 0.000
vt 1.000 0.000
vt 0.500 1.000
vt 0.000 0.000
vt 1.000 0.000
vt 0.500 1.000
vt 0.000 0.000
vt 1.000 0.000
vt 1.000 1.000
vt 0.000 1.000
vt 0.000 0.000
vt 1.000 0.000
vt 0.500 1.000
vt 0.000 0.000
vt 1.000 0.000
vt 0.500 1.000
vt 0.000 0.000
vt 1.000 0.000
vt 1.000 1.000
vt 0.000 1.000
vt 0.000 0.000
vt 1.000 0.000
vt 0.500 1.000
vt 0.000 0.000
vt 1.000 0.000
vt 0.500 1.000
vt 0.000 0.000
vt 1.000 0.000
vt 1.000 1.000
vt 0.000 1.000
vt 0.000 0.000
vt 1.000 0.000
vt 0.500 1.000
vt 0.000 0.000
vt 1.000 0.000
vt 0.500 1.000
vt 0.000 0.000
vt 1.000 0.000
vt 1.000 1.000
vt 0.000 1.000
vt 0.000 0.000
vt 1.000 0.000
vt 0.500 1.000
vt 0.000 0.000
vt 1.000 0.000
vt 0.500 1.000
vt 0.000 0.000
vt 1.000 0.000
vt 1.000 1.000
vt 0.000 1.000
vt 0.000 0.000
vt 1.000 0.000
vt 0.500 1.000
vt 0.000 0.000
vt 1.000 0.000
vt 0.500 1.000
vt 0.000 0.000
vt 1.000 0.000
vt 1.000 1.000
vt 0.000 1.000
vt 0.000 0.000
vt 1.000 0.000
vt 0.500 1.000
vt 0.000 0.000
vt 1.000 0.000
vt 0.500 1.000
vt 0.000 0.000
vt 1.000 0.000
vt 1.000 1.000
vt 0.000 1.000
vt 0.000 0.000
vt 1.000 0.000
vt 0.500 1.000
vt 0.000 0.000
vt 1.000 0.000
vt 0.500 1.000
vt 0.000 0.000
vt 1.000 0.000
vt 1.000 1.000
vt 0.000 1.000
vt 0.000 0.000
vt 1.000 0.000
vt 0.500 1.000
vt 0.000 0.000
vt 1.000 0.000
vt 0.500 1.000
vt 0.000 0.000
vt 1.000 0.000
vt 1.000 1.000
vt 0.000 1.000
vt 0.000 0.000
vt 1.000 0.000
vt 0.500 1.000
vt 0.000 0.000
vt 1.000 0.000
vt 0.500 1.000
vt 0.000 0.000
vt 1.000 0.000
vt 1.000 1.000
vt 0.000 1.000
vt 0.000 0.000
vt 1.000 0.000
vt 0.500 1.000
vt 0.000 0.000
vt 1.000 0.000
vt 0.500 1.000
vt 0.000 0.000
vt 1.000 0.000
vt 1.000 1.000
vt 0.000 1.000
vt 0.000 0.000
vt 1.000 0.000
vt 0.500 1.000
vt 0.000 0.000
vt 1.000 0.000
vt 0.500 1.000
vt 0.000 0.000
vt 1.000 0.000
vt 1.000 1.000
vt 0.000 1.000
vt 0.000 0.000
vt 1.000 0.000
vt 0.500 1.000
vt 0.000 0.000
vt 1.000 0.000
vt 0.500 1.000
usemtl chassis
f 1/1 2/2 3/3 4/4
f 6/5 5/6 8/7 7/8
f 5/9 6/10 2/11 1/12
f 4/13 3/14 7/15 8/16
f 2/17 6/18 7/19 3/20
f 5/21 1/22 4/23 8/24
usemtl tint_body
f 9/25 10/26 11/27 12/28
f 14/29 13/30 16/31 15/32
f 13/33 14/34 10/35 9/36
f 12/37 11/38 15/39 16/40
f 10/41 14/42 15/43 11/44
f 13/45 9/46 12/47 16/48
f 17/49 18/50 19/51 20/52
f 22/53 21/54 24/55 23/56
f 21/57 22/58 18/59 17/60
f 20/61 19/62 23/63 24/64
f 18/65 22/66 23/67 19/68
f 21/69 17/70 20/71 24/72
usemtl accent
f 25/73 26/74 27/75 28/76
f 30/77 29/78 32/79 31/80
f 29/81 30/82 26/83 25/84
f 28/85 27/86 31/87 32/88
f 26/89 30/90 31/91 27/92
f 29/93 25/94 28/95 32/96
usemtl chrome
f 33/97 34/98 35/99 36/100
f 38/101 37/102 40/103 39/104
f 37/105 38/106 34/107 33/108
f 36/109 35/110 39/111 40/112
f 34/113 38/114 39/115 35/116
f 37/117 33/118 36/119 40/120
usemtl tint_body
f 41/121 42/122 43/123 44/124
f 46/125 45/126 48/127 47/128
f 45/129 46/130 42/131 41/132
f 44/133 43/134 47/135 48/136
f 42/137 46/138 47/139 43/140
f 45/141 41/142 44/143 48/144
f 49/145 50/146 51/147 52/148
f 54/149 53/150 56/151 55/152
f 53/153 54/154 50/155 49/156
f 52/157 51/158 55/159 56/160
f 50/161 54/162 55/163 51/164
f 53/165 49/166 52/167 56/168
usemtl chassis
f 57/169 58/170 59/171 60/172
f 62/173 61/174 64/175 63/176
f 61/177 62/178 58/179 57/180
f 60/181 59/182 63/183 64/184
f 58/185 62/186 63/187 59/188
f 61/189 57/190 60/191 64/192
usemtl seat
f 65/193 66/194 67/195 68/196
f 70/197 69/198 72/199 71/200
f 69/201 70/202 66/203 65/204
f 68/205 67/206 71/207 72/208
f 66/209 70/210 71/211 67/212
f 69/213 65/214 68/215 72/216
usemtl tint_body
f 73/217 74/218 83/219 82/220
f 74/221 75/222 84/223 83/224
f 75/225 76/226 85/227 84/228
f 76/229 77/230 86/231 85/232
f 77/233 78/234 87/235 86/236
f 78/237 79/238 88/239 87/240
f 79/241 80/242 89/243 88/244
f 80/245 81/246 90/247 89/248
f 82/249 83/250 92/251 91/252
f 83/253 84/254 93/255 92/256
f 84/257 85/258 94/259 93/260
f 85/261 86/262 95/263 94/264
f 86/265 87/266 96/267 95/268
f 87/269 88/270 97/271 96/272
f 88/273 89/274 98/275 97/276
f 89/277 90/278 99/279 98/280
f 91/281 92/282 101/283 100/284
f 92/285 93/286 102/287 101/288
f 93/289 94/290 103/291 102/292
f 94/293 95/294 104/295 103/296
f 95/297 96/298 105/299 104/300
f 96/301 97/302 106/303 105/304
f 97/305 98/306 107/307 106/308
f 98/309 99/310 108/311 107/312
f 100/313 101/314 110/315 109/316
f 101/317 102/318 111/319 110/320
f 102/321 103/322 112/323 111/324
f 103/325 104/326 113/327 112/328
f 104/329 105/330 114/331 113/332
f 105/333 106/334 115/335 114/336
f 106/337 107/338 116/339 115/340
f 107/341 108/342 117/343 116/344
usemtl chassis
f 118/345 119/346 120/347 121/348
f 123/349 122/350 125/351 124/352
f 122/353 123/354 119/355 118/356
f 121/357 120/358 124/359 125/360
f 119/361 123/362 124/363 120/364
f 122/365 118/366 121/367 125/368
usemtl chrome
f 126/369 127/370 128/371 129/372
f 131/373 130/374 133/375 132/376
f 130/377 131/378 127/379 126/380
f 129/381 128/382 132/383 133/384
f 127/385 131/386 132/387 128/388
f 130/389 126/390 129/391 133/392
f 134/393 135/394 136/395 137/396
f 139/397 138/398 141/399 140/400
f 138/401 139/402 135/403 134/404
f 137/405 136/406 140/407 141/408
f 135/409 139/410 140/411 136/412
f 138/413 134/414 137/415 141/416
usemtl wheel
f 142/417 144/418 145/419 143/420
f 160/421 144/422 142/423
f 161/424 143/425 145/426
f 144/427 146/428 147/429 145/430
f 160/431 146/432 144/433
f 161/434 145/435 147/436
f 146/437 148/438 149/439 147/440
f 160/441 148/442 146/443
f 161/444 147/445 149/446
f 148/447 150/448 151/449 149/450
f 160/451 150/452 148/453
f 161/454 149/455 151/456
f 150/457 152/458 153/459 151/460
f 160/461 152/462 150/463
f 161/464 151/465 153/466
f 152/467 154/468 155/469 153/470
f 160/471 154/472 152/473
f 161/474 153/475 155/476
f 154/477 156/478 157/479 155/480
f 160/481 156/482 154/483
f 161/484 155/485 157/486
f 156/487 158/488 159/489 157/490
f 160/491 158/492 156/493
f 161/494 157/495 159/496
f 162/497 164/498 165/499 163/500
f 180/501 164/502 162/503
f 181/504 163/505 165/506
f 164/507 166/508 167/509 165/510
f 180/511 166/512 164/513
f 181/514 165/515 167/516
f 166/517 168/518 169/519 167/520
f 180/521 168/522 166/523
f 181/524 167/525 169/526
f 168/527 170/528 171/529 169/530
f 180/531 170/532 168/533
f 181/534 169/535 171/536
f 170/537 172/538 173/539 171/540
f 180/541 172/542 170/543
f 181/544 171/545 173/546
f 172/547 174/548 175/549 173/550
f 180/551 174/552 172/553
f 181/554 173/555 175/556
f 174/557 176/558 177/559 175/560
f 180/561 176/562 174/563
f 181/564 175/565 177/566
f 176/567 178/568 179/569 177/570
f 180/571 178/572 176/573
f 181/574 177/575 179/576
