# tree (tools/gen_kart_tree.py)
mtllib tree.mtl
v -0.2200 0.0000 -0.2200
v 0.2200 0.0000 -0.2200
v 0.2200 1.5000 -0.2200
v -0.2200 1.5000 -0.2200
v 0.2200 0.0000 0.2200
v -0.2200 0.0000 0.2200
v -0.2200 1.5000 0.2200
v 0.2200 1.5000 0.2200
v -0.2200 0.0000 0.2200
v -0.2200 0.0000 -0.2200
v -0.2200 1.5000 -0.2200
v -0.2200 1.5000 0.2200
v 0.2200 0.0000 -0.2200
v 0.2200 0.0000 0.2200
v 0.2200 1.5000 0.2200
v 0.2200 1.5000 -0.2200
v -0.2200 0.0000 0.2200
v 0.2200 0.0000 0.2200
v 0.2200 0.0000 -0.2200
v -0.2200 0.0000 -0.2200
v -0.2200 1.5000 -0.2200
v 0.2200 1.5000 -0.2200
v 0.2200 1.5000 0.2200
v -0.2200 1.5000 0.2200
v 0.0000 3.2000 0.0000
v 1.7000 1.3000 0.0000
v 1.3753 1.3000 0.9992
v 0.5253 1.3000 1.6168
v -0.5253 1.3000 1.6168
v -1.3753 1.3000 0.9992
v -1.7000 1.3000 0.0000
v -1.3753 1.3000 -0.9992
v -0.5253 1.3000 -1.6168
v 0.5253 1.3000 -1.6168
v 1.3753 1.3000 -0.9992
v 1.7000 1.3000 -0.0000
v 0.0000 4.3000 0.0000
v 1.3000 2.5000 0.0000
v 1.0517 2.5000 0.7641
v 0.4017 2.5000 1.2364
v -0.4017 2.5000 1.2364
v -1.0517 2.5000 0.7641
v -1.3000 2.5000 0.0000
v -1.0517 2.5000 -0.7641
v -0.4017 2.5000 -1.2364
v 0.4017 2.5000 -1.2364
v 1.0517 2.5000 -0.7641
v 1.3000 2.5000 -0.0000
v 0.0000 5.4000 0.0000
v 0.8500 3.7000 0.0000
v 0.6877 3.7000 0.4996
v 0.2627 3.7000 0.8084
v -0.2627 3.7000 0.8084
v -0.6877 3.7000 0.4996
v -0.8500 3.7000 0.0000
v -0.6877 3.7000 -0.4996
v -0.2627 3.7000 -0.8084
v 0.2627 3.7000 -0.8084
v 0.6877 3.7000 -0.4996
v 0.8500 3.7000 -0.0000
vt 0.0000 0.0000
vt 1.0000 0.0000
vt 1.0000 1.0000
vt 0.0000 1.0000
vt 0.0000 0.0000
vt 1.0000 0.0000
vt 1.0000 1.0000
vt 0.0000 1.0000
vt 0.0000 0.0000
vt 1.0000 0.0000
vt 1.0000 1.0000
vt 0.0000 1.0000
vt 0.0000 0.0000
vt 1.0000 0.0000
vt 1.0000 1.0000
vt 0.0000 1.0000
vt 0.0000 0.0000
vt 1.0000 0.0000
vt 1.0000 1.0000
vt 0.0000 1.0000
vt 0.0000 0.0000
vt 1.0000 0.0000
vt 1.0000 1.0000
vt 0.0000 1.0000
vt 0.5000 1.0000
vt 0.0000 0.0000
vt 0.1000 0.0000
vt 0.2000 0.0000
vt 0.3000 0.0000
vt 0.4000 0.0000
vt 0.5000 0.0000
vt 0.6000 0.0000
vt 0.7000 0.0000
vt 0.8000 0.0000
vt 0.9000 0.0000
vt 1.0000 0.0000
vt 0.5000 1.0000
vt 0.0000 0.0000
vt 0.1000 0.0000
vt 0.2000 0.0000
vt 0.3000 0.0000
vt 0.4000 0.0000
vt 0.5000 0.0000
vt 0.6000 0.0000
vt 0.7000 0.0000
vt 0.8000 0.0000
vt 0.9000 0.0000
vt 1.0000 0.0000
vt 0.5000 1.0000
vt 0.0000 0.0000
vt 0.1000 0.0000
vt 0.2000 0.0000
vt 0.3000 0.0000
vt 0.4000 0.0000
vt 0.5000 0.0000
vt 0.6000 0.0000
vt 0.7000 0.0000
vt 0.8000 0.0000
vt 0.9000 0.0000
vt 1.0000 0.0000
usemtl bark
f 1/1 2/2 3/3 4/4
f 5/5 6/6 7/7 8/8
f 9/9 10/10 11/11 12/12
f 13/13 14/14 15/15 16/16
f 17/17 18/18 19/19 20/20
f 21/21 22/22 23/23 24/24
usemtl foliage
f 25/25 27/27 26/26
f 25/25 28/28 27/27
f 25/25 29/29 28/28
f 25/25 30/30 29/29
f 25/25 31/31 30/30
f 25/25 32/32 31/31
f 25/25 33/33 32/32
f 25/25 34/34 33/33
f 25/25 35/35 34/34
f 25/25 36/36 35/35
f 37/37 39/39 38/38
f 37/37 40/40 39/39
f 37/37 41/41 40/40
f 37/37 42/42 41/41
f 37/37 43/43 42/42
f 37/37 44/44 43/43
f 37/37 45/45 44/44
f 37/37 46/46 45/45
f 37/37 47/47 46/46
f 37/37 48/48 47/47
f 49/49 51/51 50/50
f 49/49 52/52 51/51
f 49/49 53/53 52/52
f 49/49 54/54 53/53
f 49/49 55/55 54/54
f 49/49 56/56 55/55
f 49/49 57/57 56/56
f 49/49 58/58 57/57
f 49/49 59/59 58/58
f 49/49 60/60 59/59
