# Turbo Kart model (generated by tools/gen_kart_obj.py; edit or replace freely)
mtllib wheel.mtl
v 0.1500 0.3400 0.0000
v -0.1500 0.3400 0.0000
v 0.1500 0.2751 0.1998
v -0.1500 0.2751 0.1998
v 0.1500 0.1051 0.3234
v -0.1500 0.1051 0.3234
v 0.1500 -0.1051 0.3234
v -0.1500 -0.1051 0.3234
v 0.1500 -0.2751 0.1998
v -0.1500 -0.2751 0.1998
v 0.1500 -0.3400 0.0000
v -0.1500 -0.3400 0.0000
v 0.1500 -0.2751 -0.1998
v -0.1500 -0.2751 -0.1998
v 0.1500 -0.1051 -0.3234
v -0.1500 -0.1051 -0.3234
v 0.1500 0.1051 -0.3234
v -0.1500 0.1051 -0.3234
v 0.1500 0.2751 -0.1998
v -0.1500 0.2751 -0.1998
v 0.1500 0.3400 -0.0000
v -0.1500 0.3400 -0.0000
v 0.1500 0.0000 0.0000
v -0.1500 0.0000 0.0000
vt 0.000 0.000
vt 1.000 0.000
vt 1.000 1.000
vt 0.000 1.000
vt 0.000 0.000
vt 1.000 0.000
vt 0.500 1.000
vt 0.000 0.000
vt 1.000 0.000
vt 0.500 1.000
vt 0.000 0.000
vt 1.000 0.000
vt 1.000 1.000
vt 0.000 1.000
vt 0.000 0.000
vt 1.000 0.000
vt 0.500 1.000
vt 0.000 0.000
vt 1.000 0.000
vt 0.500 1.000
vt 0.000 0.000
vt 1.000 0.000
vt 1.000 1.000
vt 0.000 1.000
vt 0.000 0.000
vt 1.000 0.000
vt 0.500 1.000
vt 0.000 0.000
vt 1.000 0.000
vt 0.500 1.000
vt 0.000 0.000
vt 1.000 0.000
vt 1.000 1.000
vt 0.000 1.000
vt 0.000 0.000
vt 1.000 0.000
vt 0.500 1.000
vt 0.000 0.000
vt 1.000 0.000
vt 0.500 1.000
vt 0.000 0.000
vt 1.000 0.000
vt 1.000 1.000
vt 0.000 1.000
vt 0.000 0.000
vt 1.000 0.000
vt 0.500 1.000
vt 0.000 0.000
vt 1.000 0.000
vt 0.500 1.000
vt 0.000 0.000
vt 1.000 0.000
vt 1.000 1.000
vt 0.000 1.000
vt 0.000 0.000
vt 1.000 0.000
vt 0.500 1.000
vt 0.000 0.000
vt 1.000 0.000
vt 0.500 1.000
vt 0.000 0.000
vt 1.000 0.000
vt 1.000 1.000
vt 0.000 1.000
vt 0.000 0.000
vt 1.000 0.000
vt 0.500 1.000
vt 0.000 0.000
vt 1.000 0.000
vt 0.500 1.000
vt 0.000 0.000
vt 1.000 0.000
vt 1.000 1.000
vt 0.000 1.000
vt 0.000 0.000
vt 1.000 0.000
vt 0.500 1.000
vt 0.000 0.000
vt 1.000 0.000
vt 0.500 1.000
vt 0.000 0.000
vt 1.000 0.000
vt 1.000 1.000
vt 0.000 1.000
vt 0.000 0.000
vt 1.000 0.000
vt 0.500 1.000
vt 0.000 0.000
vt 1.000 0.000
vt 0.500 1.000
vt 0.000 0.000
vt 1.000 0.000
vt 1.000 1.000
vt 0.000 1.000
vt 0.000 0.000
vt 1.000 0.000
vt 0.500 1.000
vt 0.000 0.000
vt 1.000 0.000
vt 0.500 1.000
usemtl wheel
f 1/1 3/2 4/3 2/4
f 23/5 3/6 1/7
f 24/8 2/9 4/10
f 3/11 5/12 6/13 4/14
f 23/15 5/16 3/17
f 24/18 4/19 6/20
f 5/21 7/22 8/23 6/24
f 23/25 7/26 5/27
f 24/28 6/29 8/30
f 7/31 9/32 10/33 8/34
f 23/35 9/36 7/37
f 24/38 8/39 10/40
f 9/41 11/42 12/43 10/44
f 23/45 11/46 9/47
f 24/48 10/49 12/50
f 11/51 13/52 14/53 12/54
f 23/55 13/56 11/57
f 24/58 12/59 14/60
f 13/61 15/62 16/63 14/64
f 23/65 15/66 13/67
f 24/68 14/69 16/70
f 15/71 17/72 18/73 16/74
f 23/75 17/76 15/77
f 24/78 16/79 18/80
f 17/81 19/82 20/83 18/84
f 23/85 19/86 17/87
f 24/88 18/89 20/90
f 19/91 21/92 22/93 20/94
f 23/95 21/96 19/97
f 24/98 20/99 22/100
